<?xml version="1.0" encoding="utf-8"?>
<!-- Generator: Adobe Illustrator 19.2.0, SVG Export Plug-In . SVG Version: 6.00 Build 0)  -->
<svg version="1.1" id="Layer_1" xmlns="http://www.w3.org/2000/svg" xmlns:xlink="http://www.w3.org/1999/xlink" x="0px" y="0px"
	 viewBox="0 0 310 310" style="enable-background:new 0 0 310 310;" xml:space="preserve">
<style type="text/css">
	.st0{fill:#444444;}
</style>
<g>
	<path class="st0" d="M117.9,88.7H35.1c-2.1,0-3.6,1.7-3.6,3.6v15.6c0,1.9,1.5,3.6,3.6,3.6h29v106.3c0,1.9,1.8,3.6,3.7,3.6h17.6
		c1.9,0,3.6-1.7,3.6-3.6V111.4h29c2,0,3.6-1.7,3.6-3.6V92.3C121.5,90.4,120,88.7,117.9,88.7z"/>
	<path class="st0" d="M278.3,217L256,89.6c-0.2-1.5-1.4-2.8-3.5-2.8h-3c-1.8,0-2.7,0.7-3.2,1.9l-34.6,74.4l11.8,25.8l18.8-42.2
		c0,0,0.4,0,0.6,0l11.2,71.8c0.3,1.4,1.9,2.8,3.6,2.8H275C277.4,221.3,279,219.6,278.3,217z M182.7,132.1l-20.2-43.4
		c-0.6-1.2-1.8-1.9-3.2-1.9h-3c-2.1,0-3.2,1.4-3.4,2.8L130.2,217c-0.4,2.6,1.1,4.3,3.6,4.3h17.1c1.7,0,3.2-1.5,3.4-2.8l11-71.8
		c0.1,0,0.5,0,0.5,0l33.6,74.4c0.5,1.2,1.5,2.1,3.2,2.1h3.5c1.7,0,2.8-0.9,3.2-2.1l7-15.8L182.7,132.1z"/>
</g>
</svg>
